<svg width="1940" height="1319" viewBox="0 0 1940 1319" fill="none" xmlns="http://www.w3.org/2000/svg">
<rect x="1731" y="61" width="28" height="28" fill="white"/>
<rect x="1693" y="639" width="28" height="28" fill="white"/>
<rect x="1157" y="582" width="28" height="28" fill="white"/>
<rect x="785" y="61" width="28" height="28" fill="white"/>
<path d="M277 703L289.99 725.5H264.01L277 703Z" fill="#D9D9D9"/>
<path d="M814 441L826.99 463.5H801.01L814 441Z" fill="#FFF4E9"/>
<path d="M634 194L646.99 216.5H621.01L634 194Z" fill="white"/>
<rect x="1775" y="1222" width="28" height="28" fill="white"/>
<rect x="1209" y="918" width="28" height="28" fill="white"/>
<rect x="591" y="820" width="28" height="28" fill="white"/>
<path d="M1404 703L1416.99 725.5H1391.01L1404 703Z" fill="#FFF4E9"/>
<path d="M978 1081L990.99 1103.5H965.01L978 1081Z" fill="#FFF4E9"/>
<path d="M1481 1176.5L1490.25 1160.48L1508.75 1160.48L1518 1176.5L1508.75 1192.52L1490.25 1192.52L1481 1176.5Z" fill="#FFF4E9"/>
<path d="M1656 303.5L1665.25 287.479L1683.75 287.479L1693 303.5L1683.75 319.521L1665.25 319.521L1656 303.5Z" fill="#D9D9D9"/>
<path d="M1854 537.5L1863.25 521.479L1881.75 521.479L1891 537.5L1881.75 553.521L1863.25 553.521L1854 537.5Z" fill="#FFF4E9"/>
<path d="M1637 865.5L1646.25 849.479L1664.75 849.479L1674 865.5L1664.75 881.521L1646.25 881.521L1637 865.5Z" fill="#FFF4E9"/>
<path d="M1871 1077.5L1880.25 1061.48L1898.75 1061.48L1908 1077.5L1898.75 1093.52L1880.25 1093.52L1871 1077.5Z" fill="#F37A02"/>
<path d="M858 761.5L867.25 745.479L885.75 745.479L895 761.5L885.75 777.521L867.25 777.521L858 761.5Z" fill="#FFF4E9"/>
<path d="M776 1109.5L785.25 1093.48L803.75 1093.48L813 1109.5L803.75 1125.52L785.25 1125.52L776 1109.5Z" fill="#FFF4E9"/>
<path d="M1873 70.5L1882.25 54.4785L1900.75 54.4785L1910 70.5L1900.75 86.5215L1882.25 86.5215L1873 70.5Z" fill="#FFF4E9"/>
<path d="M1251.5 322C1251.5 314.937 1248.52 299.057 1257.06 294.922C1258.76 294.099 1260.55 293.488 1262.4 293.102C1265.66 292.418 1272.28 291.216 1275.4 292.73C1283.47 296.641 1279.69 313.665 1273.44 317.32C1270.77 318.88 1267.91 320.725 1265.09 317.84C1262.12 314.803 1260.66 311.186 1260.66 306.956C1260.66 299.671 1270.46 302.886 1270.46 308.628" stroke="white" stroke-width="3" stroke-linecap="round"/>
<path d="M829.504 267C829.504 259.937 826.524 244.057 835.06 239.922C836.758 239.099 838.552 238.488 840.399 238.102C843.664 237.418 850.276 236.216 853.401 237.73C861.474 241.641 857.693 258.665 851.44 262.32C848.77 263.88 845.907 265.725 843.087 262.84C840.117 259.803 838.656 256.186 838.656 251.956C838.656 244.671 848.462 247.886 848.462 253.628" stroke="white" stroke-width="3" stroke-linecap="round"/>
<path d="M1509.5 597C1509.5 589.937 1506.52 574.057 1515.06 569.922C1516.76 569.099 1518.55 568.488 1520.4 568.102C1523.66 567.418 1530.28 566.216 1533.4 567.73C1541.47 571.641 1537.69 588.665 1531.44 592.32C1528.77 593.88 1525.91 595.725 1523.09 592.84C1520.12 589.803 1518.66 586.186 1518.66 581.956C1518.66 574.671 1528.46 577.886 1528.46 583.628" stroke="white" stroke-width="3" stroke-linecap="round"/>
<path d="M1495.5 215C1495.5 207.937 1492.52 192.057 1501.06 187.922C1502.76 187.099 1504.55 186.488 1506.4 186.102C1509.66 185.418 1516.28 184.216 1519.4 185.73C1527.47 189.641 1523.69 206.665 1517.44 210.32C1514.77 211.88 1511.91 213.725 1509.09 210.84C1506.12 207.803 1504.66 204.186 1504.66 199.956C1504.66 192.671 1514.46 195.886 1514.46 201.628" stroke="#FFF4E9" stroke-width="3" stroke-linecap="round"/>
<path d="M1813.5 401C1813.5 393.937 1810.52 378.057 1819.06 373.922C1820.76 373.099 1822.55 372.488 1824.4 372.102C1827.66 371.418 1834.28 370.216 1837.4 371.73C1845.47 375.641 1841.69 392.665 1835.44 396.32C1832.77 397.88 1829.91 399.725 1827.09 396.84C1824.12 393.803 1822.66 390.186 1822.66 385.956C1822.66 378.671 1832.46 381.886 1832.46 387.628" stroke="white" stroke-width="3" stroke-linecap="round"/>
<path d="M1692.5 1081C1692.5 1073.94 1689.52 1058.06 1698.06 1053.92C1699.76 1053.1 1701.55 1052.49 1703.4 1052.1C1706.66 1051.42 1713.28 1050.22 1716.4 1051.73C1724.47 1055.64 1720.69 1072.67 1714.44 1076.32C1711.77 1077.88 1708.91 1079.72 1706.09 1076.84C1703.12 1073.8 1701.66 1070.19 1701.66 1065.96C1701.66 1058.67 1711.46 1061.89 1711.46 1067.63" stroke="#FFF4E9" stroke-width="3" stroke-linecap="round"/>
<path d="M1852.72 234.161V216.817H1855.66V234.161H1852.72ZM1845.52 226.96V224.017H1862.87V226.96H1845.52Z" fill="#FFF4E9"/>
<path d="M1853.72 796.161V778.817H1856.66V796.161H1853.72ZM1846.52 788.96V786.017H1863.87V788.96H1846.52Z" fill="#FFF4E9"/>
<path d="M1025.72 397.161V379.817H1028.66V397.161H1025.72ZM1018.52 389.96V387.017H1035.87V389.96H1018.52Z" fill="#FFF4E9"/>
<path d="M1223.72 1220.16V1202.82H1226.66V1220.16H1223.72ZM1216.52 1212.96V1210.02H1233.87V1212.96H1216.52Z" fill="#FFF4E9"/>
<path d="M1374.72 527.161V509.817H1377.66V527.161H1374.72ZM1367.52 519.96V517.017H1384.87V519.96H1367.52Z" fill="#FFF4E9"/>
<path d="M1586.69 111.509V97.446H1589.08V111.509H1586.69ZM1580.86 105.67V103.284H1594.92V105.67H1580.86Z" fill="#FFF4E9"/>
<path d="M1442.69 955.509V941.446H1445.08V955.509H1442.69ZM1436.86 949.67V947.284H1450.92V949.67H1436.86Z" fill="#FFF4E9"/>
<rect width="28" height="28" transform="matrix(-1 0 0 1 173 1272)" fill="white"/>
<path d="M467 1226.5L457.75 1210.48L439.25 1210.48L430 1226.5L439.25 1242.52L457.75 1242.52L467 1226.5Z" fill="#FFF4E9"/>
<path d="M292 353.5L282.75 337.479L264.25 337.479L255 353.5L264.25 369.521L282.75 369.521L292 353.5Z" fill="#D9D9D9"/>
<path d="M94 587.5L84.75 571.479L66.25 571.479L57 587.5L66.25 603.521L84.75 603.521L94 587.5Z" fill="#FFF4E9"/>
<path d="M311 915.5L301.75 899.479L283.25 899.479L274 915.5L283.25 931.521L301.75 931.521L311 915.5Z" fill="#FFF4E9"/>
<path d="M77 1127.5L67.75 1111.48L49.25 1111.48L40 1127.5L49.25 1143.52L67.75 1143.52L77 1127.5Z" fill="#F37A02"/>
<path d="M75 120.5L65.75 104.479L47.25 104.479L38 120.5L47.25 136.521L65.75 136.521L75 120.5Z" fill="#FFF4E9"/>
<path d="M438.496 647C438.496 639.937 441.476 624.057 432.94 619.922C431.242 619.099 429.448 618.488 427.601 618.102C424.336 617.418 417.724 616.216 414.599 617.73C406.526 621.641 410.307 638.665 416.56 642.32C419.23 643.88 422.093 645.725 424.913 642.84C427.883 639.803 429.344 636.186 429.344 631.956C429.344 624.671 419.538 627.886 419.538 633.628" stroke="#FFF4E9" stroke-width="3" stroke-linecap="round"/>
<path d="M452.496 265C452.496 257.937 455.476 242.057 446.94 237.922C445.242 237.099 443.448 236.488 441.601 236.102C438.336 235.418 431.724 234.216 428.599 235.73C420.526 239.641 424.307 256.665 430.56 260.32C433.23 261.88 436.093 263.725 438.913 260.84C441.883 257.803 443.344 254.186 443.344 249.956C443.344 242.671 433.538 245.886 433.538 251.628" stroke="#FFF4E9" stroke-width="3" stroke-linecap="round"/>
<path d="M134.496 451C134.496 443.937 137.476 428.057 128.94 423.922C127.242 423.099 125.448 422.488 123.601 422.102C120.336 421.418 113.724 420.216 110.599 421.73C102.526 425.641 106.307 442.665 112.56 446.32C115.23 447.88 118.093 449.725 120.913 446.84C123.883 443.803 125.344 440.186 125.344 435.956C125.344 428.671 115.538 431.886 115.538 437.628" stroke="white" stroke-width="3" stroke-linecap="round"/>
<path d="M255.496 1131C255.496 1123.94 258.476 1108.06 249.94 1103.92C248.242 1103.1 246.448 1102.49 244.601 1102.1C241.336 1101.42 234.724 1100.22 231.599 1101.73C223.526 1105.64 227.307 1122.67 233.56 1126.32C236.23 1127.88 239.093 1129.72 241.913 1126.84C244.883 1123.8 246.344 1120.19 246.344 1115.96C246.344 1108.67 236.538 1111.89 236.538 1117.63" stroke="#FFF4E9" stroke-width="3" stroke-linecap="round"/>
<path d="M95.2784 284.161V266.817H92.3352V284.161H95.2784ZM102.479 276.96V274.017H85.1349V276.96H102.479Z" fill="#FFF4E9"/>
<path d="M94.2784 846.161V828.817H91.3352V846.161H94.2784ZM101.479 838.96V836.017H84.1349V838.96H101.479Z" fill="#FFF4E9"/>
<path d="M361.307 161.509V147.446H358.92V161.509H361.307ZM367.145 155.67V153.284H353.082V155.67H367.145Z" fill="#FFF4E9"/>
<path d="M505.307 1005.51V991.446H502.92V1005.51H505.307ZM511.145 999.67V997.284H497.082V999.67H511.145Z" fill="#FFF4E9"/>
<path d="M657.693 605.509V591.446H660.08V605.509H657.693ZM651.855 599.67V597.284H665.918V599.67H651.855Z" fill="#FFF4E9"/>
</svg>
